<svg version="1" xmlns="http://www.w3.org/2000/svg" width="682.667" height="682.667" viewBox="0 0 512.000000 512.000000"><path d="M34.8 137.8l-5.8.3v21.4c0 16.5.3 21.5 1.3 21.6.6.1 10.4.2 21.7.3l20.5.1V374h7.3c9.3.1 27.1.1 32.2 0h4V181.4h21.5c11.8 0 21.6.2 21.6.5.1.3.2 43.4.3 95.8.1 52.3.4 95.4.7 95.8.9.8 134.9.9 135.7 0 .4-.3.7-43.7.7-96.3v-95.7l24.8-.1 24.7-.1v3.6c.1 2 .1 45.3.1 96.3V374l4.5.1h33.3l5.8-.1.1-94.3c0-51.8.1-95.1.1-96.3.1-2 .5-2 24.8-2l24.8.1v96.2l-.1 96.3 9.8.1c5.4 0 11.4.1 13.3.1 1.9 0 7.3-.1 12-.1l8.5-.1V138h-6.7c-13.4-.1-213.9-.1-218.5-.1l-4.8.1-.2 96.2-.3 96.3h-24.7l-24.8.1V138h-3.2c-24.8-.3-160.8-.4-165-.2z"/></svg>