<svg viewBox="0 0 16 16" width="24" height="24" xmlns="http://www.w3.org/2000/svg" fill-rule="evenodd" clip-rule="evenodd" stroke-linejoin="round" stroke-miterlimit="1.414"><path d="M1 1v14h14V1H1zm1 1h12v12H2V2z" fill="#999" fill-rule="nonzero"/><path fill="#666" fill-rule="nonzero" d="M3 3h10v2H3z"/><path fill="#fff" fill-rule="nonzero" d="M1 1h14v14H1z"/><path d="M1 1v14h14V1H1zm1 1h12v12H2V2z" fill="#999" fill-rule="nonzero"/><path d="M11.5 12v1h-1v-1h1zm-2 0v1h-1v-1h1zm-2 0v1h-1v-1h1zm-2 0v1h-1v-1h1z" fill="#999" fill-rule="nonzero"/><path fill="#ff8700" d="M2 3h12v8H2z"/><path d="M4 8L3 7l1-1v2m8-2l1 1-1 1V6" fill="#fff"/></svg>